<svg xmlns="http://www.w3.org/2000/svg" viewBox="0 0 600 400">
  <!-- 背景 -->
  <rect width="600" height="400" fill="#f8f9fa" />
  
  <!-- グリッド線 -->
  <g stroke="#e0e0e0" stroke-width="1">
    <!-- 垂直グリッド線 -->
    <line x1="100" y1="50" x2="100" y2="350" />
    <line x1="150" y1="50" x2="150" y2="350" />
    <line x1="200" y1="50" x2="200" y2="350" />
    <line x1="250" y1="50" x2="250" y2="350" />
    <line x1="300" y1="50" x2="300" y2="350" />
    <line x1="350" y1="50" x2="350" y2="350" />
    <line x1="400" y1="50" x2="400" y2="350" />
    <line x1="450" y1="50" x2="450" y2="350" />
    <line x1="500" y1="50" x2="500" y2="350" />
    
    <!-- 水平グリッド線 -->
    <line x1="50" y1="100" x2="550" y2="100" />
    <line x1="50" y1="150" x2="550" y2="150" />
    <line x1="50" y1="200" x2="550" y2="200" />
    <line x1="50" y1="250" x2="550" y2="250" />
    <line x1="50" y1="300" x2="550" y2="300" />
  </g>
  
  <!-- 軸 -->
  <g stroke="#333" stroke-width="2">
    <line x1="50" y1="350" x2="550" y2="350" /> <!-- X軸 -->
    <line x1="50" y1="350" x2="50" y2="50" /> <!-- Y軸 -->
  </g>
  
  <!-- 軸ラベル -->
  <text x="300" y="390" text-anchor="middle" font-size="16" font-family="Arial">リスク（標準偏差）</text>
  <text x="20" y="200" text-anchor="middle" font-size="16" font-family="Arial" transform="rotate(-90, 20, 200)">期待リターン</text>
  
  <!-- 軸目盛りとラベル -->
  <g>
    <!-- X軸目盛り -->
    <line x1="100" y1="350" x2="100" y2="355" stroke="#333" stroke-width="2" />
    <line x1="200" y1="350" x2="200" y2="355" stroke="#333" stroke-width="2" />
    <line x1="300" y1="350" x2="300" y2="355" stroke="#333" stroke-width="2" />
    <line x1="400" y1="350" x2="400" y2="355" stroke="#333" stroke-width="2" />
    <line x1="500" y1="350" x2="500" y2="355" stroke="#333" stroke-width="2" />
    
    <!-- X軸ラベル -->
    <text x="100" y="375" text-anchor="middle" font-size="12" font-family="Arial">5%</text>
    <text x="200" y="375" text-anchor="middle" font-size="12" font-family="Arial">10%</text>
    <text x="300" y="375" text-anchor="middle" font-size="12" font-family="Arial">15%</text>
    <text x="400" y="375" text-anchor="middle" font-size="12" font-family="Arial">20%</text>
    <text x="500" y="375" text-anchor="middle" font-size="12" font-family="Arial">25%</text>
    
    <!-- Y軸目盛り -->
    <line x1="45" y1="300" x2="50" y2="300" stroke="#333" stroke-width="2" />
    <line x1="45" y1="250" x2="50" y2="250" stroke="#333" stroke-width="2" />
    <line x1="45" y1="200" x2="50" y2="200" stroke="#333" stroke-width="2" />
    <line x1="45" y1="150" x2="50" y2="150" stroke="#333" stroke-width="2" />
    <line x1="45" y1="100" x2="50" y2="100" stroke="#333" stroke-width="2" />
    
    <!-- Y軸ラベル -->
    <text x="35" y="305" text-anchor="end" font-size="12" font-family="Arial">2%</text>
    <text x="35" y="255" text-anchor="end" font-size="12" font-family="Arial">4%</text>
    <text x="35" y="205" text-anchor="end" font-size="12" font-family="Arial">6%</text>
    <text x="35" y="155" text-anchor="end" font-size="12" font-family="Arial">8%</text>
    <text x="35" y="105" text-anchor="end" font-size="12" font-family="Arial">10%</text>
  </g>
  
  <!-- 可能な投資機会セット -->
  <path d="M 200,280 Q 210,240 230,230 Q 270,220 310,220 C 350,230 380,240 410,250 Q 430,270 450,290" 
        fill="#f2f7fd" stroke="#9bc1e4" stroke-width="1" />
  
  <!-- 効率的フロンティア -->
  <path d="M 180,280 Q 210,240 250,205 Q 280,180 310,165 Q 350,150 400,150" 
        fill="none" stroke="#3498db" stroke-width="3" />
  <text x="230" y="210" text-anchor="middle" font-size="14" font-family="Arial" fill="#3498db" font-weight="bold">効率的フロンティア</text>
  
  <!-- 非効率的フロンティア（下側） -->
  <path d="M 180,280 C 220,290 260,285 300,270 Q 340,255 400,250" 
        fill="none" stroke="#3498db" stroke-width="2" stroke-dasharray="5,5" />
  <text x="330" y="255" text-anchor="middle" font-size="12" font-family="Arial" fill="#3498db">非効率的フロンティア</text>
  
  <!-- キャピタル・マーケット・ライン（CML） -->
  <line x1="50" y1="300" x2="350" y2="150" stroke="#e74c3c" stroke-width="3" />
  <text x="180" y="230" text-anchor="middle" font-size="14" font-family="Arial" fill="#e74c3c" font-weight="bold" transform="rotate(-25, 180, 230)">キャピタル・マーケット・ライン</text>
  
  <!-- 無リスク資産 -->
  <circle cx="50" cy="300" r="6" fill="#e74c3c" />
  <text x="65" y="285" text-anchor="start" font-size="12" font-family="Arial">無リスク資産</text>
  <text x="65" y="300" text-anchor="start" font-size="12" font-family="Arial">(Rf = 2%)</text>
  
  <!-- 最小分散ポートフォリオ -->
  <circle cx="180" cy="280" r="6" fill="#9b59b6" />
  <text x="165" y="315" text-anchor="middle" font-size="12" font-family="Arial">最小分散</text>
  <text x="165" y="330" text-anchor="middle" font-size="12" font-family="Arial">ポートフォリオ</text>
  
  <!-- 市場ポートフォリオ（接点） -->
  <circle cx="350" cy="150" r="6" fill="#e74c3c" />
  <text x="350" y="135" text-anchor="middle" font-size="12" font-family="Arial">市場ポートフォリオ</text>
  <text x="350" y="120" text-anchor="middle" font-size="12" font-family="Arial">(接点ポートフォリオ)</text>
  
  <!-- 個別資産 -->
  <circle cx="120" cy="250" r="5" fill="#2ecc71" />
  <text x="120" y="235" text-anchor="middle" font-size="12" font-family="Arial">A</text>
  
  <circle cx="200" cy="220" r="5" fill="#2ecc71" />
  <text x="200" y="205" text-anchor="middle" font-size="12" font-family="Arial">B</text>
  
  <circle cx="250" cy="190" r="5" fill="#2ecc71" />
  <text x="250" y="175" text-anchor="middle" font-size="12" font-family="Arial">C</text>
  
  <circle cx="300" cy="210" r="5" fill="#2ecc71" />
  <text x="300" y="195" text-anchor="middle" font-size="12" font-family="Arial">D</text>
  
  <circle cx="370" cy="230" r="5" fill="#2ecc71" />
  <text x="370" y="215" text-anchor="middle" font-size="12" font-family="Arial">E</text>
  
  <circle cx="450" cy="180" r="5" fill="#2ecc71" />
  <text x="450" y="165" text-anchor="middle" font-size="12" font-family="Arial">F</text>
  
  <!-- タイトル -->
  <text x="300" y="30" text-anchor="middle" font-size="20" font-family="Arial" font-weight="bold">効率的フロンティア</text>
  
  <!-- 凡例 -->
  <rect x="460" y="70" width="130" height="110" fill="white" stroke="#ccc" />
  <text x="470" y="90" font-size="12" font-family="Arial" font-weight="bold">凡例</text>
  
  <circle cx="480" cy="110" r="5" fill="#2ecc71" />
  <text x="495" y="115" font-size="12" font-family="Arial">個別資産</text>
  
  <circle cx="480" cy="130" r="6" fill="#9b59b6" />
  <text x="495" y="135" font-size="12" font-family="Arial">最小分散ポートフォリオ</text>
  
  <circle cx="480" cy="150" r="6" fill="#e74c3c" />
  <text x="495" y="155" font-size="12" font-family="Arial">市場ポートフォリオ</text>
  
  <line x1="470" y1="170" x2="490" y2="170" stroke="#3498db" stroke-width="3" />
  <text x="505" y="175" font-size="12" font-family="Arial">効率的フロンティア</text>
  
  <!-- 説明文 -->
  <text x="300" y="420" text-anchor="middle" font-size="12" font-family="Arial" font-style="italic">
    効率的フロンティアは、同じリスクで最大のリターン、または同じリターンで最小のリスクを提供するポートフォリオの集合
  </text>
</svg>
